<svg xmlns="http://www.w3.org/2000/svg" viewBox="0 0 520 200" role="img" aria-labelledby="title desc">
  <title id="title">007-Akira GitHub telemetry</title>
  <desc id="desc">Live GitHub statistics including 55 total stars gained across source repositories.</desc>
  <defs>
    <pattern id="grid" width="24" height="24" patternUnits="userSpaceOnUse"><path d="M24 0H0V24" fill="none" stroke="#173638"/></pattern>
    <style>text{font-family:ui-monospace,SFMono-Regular,Menlo,Consolas,monospace}.p{animation:p 3s ease-in-out infinite}@keyframes p{50%{opacity:.35}}@media(prefers-reduced-motion:reduce){.p{animation:none}}</style>
  </defs>
  <rect width="520" height="200" rx="12" fill="#0d1515"/>
  <rect width="520" height="200" rx="12" fill="url(#grid)" opacity=".4"/>
  <rect x="1" y="1" width="518" height="198" rx="11" fill="none" stroke="#3a494b"/>
  <circle cx="22" cy="22" r="5" fill="#34fc0d" class="p"/>
  <text x="38" y="28" fill="#00dbe7" font-size="14" font-weight="700">GITHUB_TELEMETRY.dat // ONLINE</text>
  <path d="M18 43H502" stroke="#253638"/>
  <text x="24" y="62" fill="#849495" font-size="10">PUBLIC REPOSITORY SIGNALS // AUTO-REFRESHED DAILY</text>
  <text x="24" y="91" fill="#ffd166" font-size="27" font-weight="700">55</text><text x="24" y="112" fill="#849495" font-size="9">TOTAL STARS GAINED</text><text x="146" y="91" fill="#00dbe7" font-size="27" font-weight="700">19</text><text x="146" y="112" fill="#849495" font-size="9">PUBLIC REPOSITORIES</text><text x="268" y="91" fill="#b600f8" font-size="27" font-weight="700">1</text><text x="268" y="112" fill="#849495" font-size="9">REPOSITORY FORKS</text><text x="390" y="91" fill="#34fc0d" font-size="27" font-weight="700">12</text><text x="390" y="112" fill="#849495" font-size="9">FOLLOWERS</text>
  <path d="M24 132H496" stroke="#253638"/>
  <text x="24" y="155" fill="#849495" font-size="10">UPLINK</text>
  <text x="24" y="178" fill="#e1fdff" font-size="15">github.com/007-Akira</text>
  <text x="496" y="178" text-anchor="end" fill="#34fc0d" font-size="11">SIGNAL VERIFIED</text>
  <path d="M24 188h182" stroke="#00dbe7" stroke-width="3"/><path d="M206 188h110" stroke="#b600f8" stroke-width="3"/><path d="M316 188h72" stroke="#34fc0d" stroke-width="3"/><path d="M388 188h108" stroke="#ffd166" stroke-width="3"/>
</svg>
