<svg xmlns="http://www.w3.org/2000/svg" width="1200" height="320" viewBox="0 0 1200 320" role="img" aria-labelledby="title desc">
  <title id="title">Adithya Kiran</title>
  <desc id="desc">Computer Science and Engineering Student focused on AI and Full Stack Development</desc>
  <defs>
    <linearGradient id="bg" x1="0" y1="0" x2="1" y2="1">
      <stop offset="0%" stop-color="#020617" />
      <stop offset="48%" stop-color="#0f172a" />
      <stop offset="100%" stop-color="#0ea5e9" />
    </linearGradient>
    <linearGradient id="wave" x1="0" y1="0" x2="1" y2="0">
      <stop offset="0%" stop-color="#0ea5e9" stop-opacity="0.92" />
      <stop offset="55%" stop-color="#38bdf8" stop-opacity="0.62" />
      <stop offset="100%" stop-color="#020617" stop-opacity="0.85" />
    </linearGradient>
    <filter id="glow" x="-20%" y="-20%" width="140%" height="140%">
      <feGaussianBlur stdDeviation="4" result="blur" />
      <feMerge>
        <feMergeNode in="blur" />
        <feMergeNode in="SourceGraphic" />
      </feMerge>
    </filter>
  </defs>

  <rect width="1200" height="320" fill="url(#bg)" />
  <circle cx="1010" cy="56" r="150" fill="#38bdf8" opacity="0.13" />
  <circle cx="170" cy="250" r="170" fill="#0ea5e9" opacity="0.11" />

  <g opacity="0.18">
    <path d="M88 92H292" stroke="#e0f2fe" stroke-width="1" />
    <path d="M908 96H1112" stroke="#e0f2fe" stroke-width="1" />
    <path d="M120 226H352" stroke="#e0f2fe" stroke-width="1" />
    <path d="M842 230H1080" stroke="#e0f2fe" stroke-width="1" />
  </g>

  <text x="600" y="132" text-anchor="middle" font-family="Inter, Segoe UI, Arial, sans-serif" font-size="58" font-weight="800" fill="#f8fafc" filter="url(#glow)">Adithya Kiran</text>
  <text x="600" y="178" text-anchor="middle" font-family="Inter, Segoe UI, Arial, sans-serif" font-size="23" font-weight="600" fill="#bae6fd">Computer Science &amp; Engineering Student | AI + Full Stack</text>
  <text x="600" y="218" text-anchor="middle" font-family="JetBrains Mono, Consolas, monospace" font-size="17" fill="#cbd5e1">Building reliable software, learning deeply, refining every commit.</text>

  <path d="M0 252L40 244C80 236 160 220 240 222.7C320 225 400 247 480 252C560 257 640 247 720 234.7C800 223 880 209 960 215.3C1040 222 1120 248 1160 261.3L1200 274.7V320H0V252Z" fill="url(#wave)" />
  <path d="M0 282L50 276C100 270 200 258 300 260.7C400 263 500 281 600 281.3C700 282 800 264 900 262.7C1000 261 1100 277 1150 285.3L1200 293.3V320H0V282Z" fill="#020617" opacity="0.72" />
</svg>
